<?xml version="1.0" encoding="utf-8"?>
<!-- Generator: Adobe Illustrator 23.0.3, SVG Export Plug-In . SVG Version: 6.00 Build 0)  -->
<svg version="1.1" id="Calque_1" xmlns="http://www.w3.org/2000/svg" xmlns:xlink="http://www.w3.org/1999/xlink" x="0px" y="0px"
	 viewBox="0 0 841.89 595.28" style="enable-background:new 0 0 841.89 595.28;" xml:space="preserve">
<style type="text/css">
	.st0{fill:none;stroke:#000000;stroke-miterlimit:10;}
	.st1{fill:#E30613;}
	.st2{fill:#FFFFFF;}
</style>
<g>
	<polygon points="571.61,323.09 617.32,317.27 597.2,334.34 619.93,349.72 574.72,354.97 	"/>
</g>
<g>
	<path d="M525.21,282.37c18.56-10.01,32.47-28.18,36.23-50.59c6.45-38.51-19.54-74.97-58.06-81.42
		c-38.51-6.45-74.97,19.54-81.42,58.06c-2.25,13.44-0.55,26.64,4.26,38.39L525.21,282.37z"/>
</g>
<g>
	<path d="M486.34,291.95l-37.98-13.54l8.19-22.97l37.98,13.54L486.34,291.95z M451.25,277.03l33.72,12.03l6.67-18.71l-33.72-12.02
		L451.25,277.03z"/>
</g>
<g>
	<path d="M449.66,369.51c-4.69,0-22.68-5.27-24.43-9.8c-0.96-2.47,0.54-5.3,3.83-11.51c3.56-6.73,8.94-16.9,15.49-34.25
		c4.5-11.92,4.23-32.05,4.14-35.64c-18.97-13.59-22.66-30.03-22.81-30.73l-0.42-1.97l101.2,35.56l-1.22,1.27
		c-9.67,10.05-29.53,9.65-39.08,9.45c-0.01,0-0.02,0-0.02,0c-4.9,0-18.1,28.19-19.94,33.6c-5.41,15.94-13.7,40.55-14.32,42.74
		c-0.22,0.79-0.95,1.21-2.17,1.27C449.83,369.51,449.75,369.51,449.66,369.51z M428.69,249.14c1.63,4.81,7.03,17.26,21.76,27.65
		l0.46,0.32l0.02,0.56c0.04,0.96,0.82,23.58-4.27,37.07c-6.6,17.49-12.24,28.14-15.61,34.51c-2.78,5.24-4.31,8.13-3.72,9.64
		c0.09,0.24,0.83,1.57,5.99,3.82c6.62,2.88,14.82,4.82,16.68,4.52c1.27-4.1,10.02-30.03,14.24-42.47
		c0.12-0.35,14.44-35.14,22.1-35.14c0.02,0,0.04,0,0.05,0h0c8.1,0.17,26.6,0.55,36.09-7.52L428.69,249.14z"/>
</g>
<g>
	<path class="st0" d="M550.97,302.05"/>
</g>
<g>
	<path class="st1" d="M314.72,292.69c-19.46-8.14-35.08-24.86-41.01-46.79c-10.2-37.7,12.09-76.52,49.79-86.72
		c37.7-10.2,76.52,12.09,86.72,49.79c3.56,13.16,3.16,26.46-0.47,38.62L314.72,292.69z"/>
</g>
<g>
	<path d="M354.34,298.4l-9.83-20.84l36.46-17.2l9.83,20.84L354.34,298.4z M347.52,278.65l7.9,16.74l32.37-15.27l-7.9-16.74
		L347.52,278.65z"/>
</g>
<g>
	<path d="M397.94,372.02c-1.06,0-1.74-0.36-2.02-1.06c-0.82-2.09-11.28-25.31-18.44-41.12c-2.34-5.16-17.98-31.49-23-31.49
		c-0.05,0-0.11,0-0.16,0.01c-9.48,1.13-29.21,3.49-39.82-5.57l-1.34-1.14l97.23-45.32l-0.22,2c-0.08,0.71-2.14,17.43-19.69,32.82
		c0.26,3.58,1.97,23.64,7.61,35.06c8.22,16.63,14.57,26.22,18.78,32.57c3.88,5.86,5.65,8.53,4.94,11.08
		c-1.32,4.76-19.33,11.95-23.6,12.16C398.11,372.02,398.02,372.02,397.94,372.02z M397.87,369.77c1.88,0.09,9.85-2.62,16.16-6.14
		c4.92-2.75,5.52-4.14,5.59-4.39c0.43-1.56-1.37-4.28-4.65-9.23c-3.98-6.01-10.64-16.06-18.92-32.81
		c-6.39-12.92-7.82-35.52-7.88-36.48l-0.03-0.56l0.42-0.37c13.65-11.78,17.8-24.7,18.95-29.65l-90.12,42.01
		c10.24,7.11,28.6,4.91,36.65,3.95h0c7.61-0.92,25.34,32.46,25.49,32.8C384.96,340.88,396.22,365.84,397.87,369.77z"/>
</g>
<g>
	<path class="st0" d="M291.01,314.8"/>
</g>
<g>
	<rect x="270.74" y="321.36" transform="matrix(0.9941 -0.1084 0.1084 0.9941 -36.2815 48.2171)" width="309.55" height="73.16"/>
</g>
<g>
	<g>
		<path class="st2" d="M287.79,389.58c-0.4,0.16-1.04,0.34-1.9,0.55c-0.87,0.21-1.73,0.36-2.6,0.45s-1.63,0.11-2.3,0.05
			c-0.67-0.06-1.25-0.24-1.73-0.52c-0.49-0.29-0.87-0.72-1.16-1.3c-0.29-0.58-0.49-1.35-0.59-2.33L274.64,360
			c-0.09-0.79,0.06-1.42,0.45-1.9c0.38-0.48,0.94-0.89,1.66-1.23c1.23-0.59,2.64-1.07,4.25-1.45c1.61-0.38,3.23-0.66,4.89-0.84
			c5.17-0.56,9.24,0.12,12.22,2.04c2.98,1.92,4.67,4.77,5.08,8.55c0.2,1.84,0.09,3.53-0.33,5.07c-0.42,1.54-1.15,2.91-2.17,4.1
			c-1.03,1.19-2.38,2.17-4.06,2.94c-1.68,0.77-3.66,1.28-5.95,1.52l-3.99,0.43L287.79,389.58z M288.76,371.22
			c1.57-0.17,2.74-0.67,3.51-1.49c0.76-0.82,1.07-1.98,0.9-3.48c-0.15-1.42-0.71-2.47-1.68-3.15c-0.97-0.67-2.29-0.92-3.98-0.74
			c-0.6,0.06-1.09,0.13-1.49,0.19c-0.39,0.06-0.79,0.15-1.19,0.27l0.94,8.71L288.76,371.22z"/>
	</g>
	<g>
		<path class="st2" d="M320.45,386.05c-0.4,0.16-1.03,0.34-1.9,0.55c-0.87,0.21-1.73,0.36-2.6,0.45c-0.86,0.09-1.63,0.11-2.3,0.05
			c-0.67-0.06-1.25-0.23-1.73-0.52c-0.49-0.29-0.88-0.72-1.16-1.3c-0.29-0.58-0.49-1.35-0.59-2.33l-3.21-29.68
			c0.4-0.12,1.05-0.29,1.93-0.52c0.89-0.23,1.74-0.39,2.57-0.48c0.86-0.09,1.63-0.11,2.3-0.05c0.67,0.06,1.25,0.24,1.73,0.52
			s0.87,0.72,1.16,1.3c0.29,0.58,0.49,1.35,0.59,2.33L320.45,386.05z"/>
	</g>
	<g>
		<path class="st2" d="M358.53,380.97c-0.47,0.58-1.18,1.07-2.15,1.46c-0.96,0.39-2.14,0.66-3.53,0.81c-1.39,0.15-2.72,0.09-4-0.19
			c-1.28-0.28-2.4-1.16-3.36-2.65l-6.79-10.76c-0.69-1.1-1.31-2.14-1.87-3.12c-0.56-0.98-1.18-2.12-1.85-3.41l-0.33,0.09
			c0.37,2.01,0.67,4.06,0.92,6.16c0.25,2.1,0.48,4.16,0.7,6.18l0.94,8.71c-0.4,0.16-1.02,0.34-1.85,0.54
			c-0.83,0.2-1.66,0.35-2.48,0.44c-0.82,0.09-1.56,0.11-2.21,0.07c-0.65-0.04-1.2-0.21-1.65-0.5c-0.45-0.29-0.82-0.72-1.1-1.27
			c-0.29-0.56-0.48-1.3-0.58-2.24l-3.04-28.11c0.44-0.81,1.19-1.45,2.24-1.95c1.05-0.49,2.19-0.81,3.42-0.94
			c1.39-0.15,2.73-0.08,4.03,0.22c1.3,0.3,2.41,1.17,3.33,2.63l6.85,10.75c0.69,1.1,1.31,2.14,1.87,3.12
			c0.56,0.98,1.18,2.12,1.85,3.41l0.27-0.09c-0.37-2.01-0.68-4.02-0.94-6.04s-0.49-4.04-0.71-6.07l-0.98-9.11
			c0.4-0.16,1.01-0.34,1.85-0.54c0.83-0.2,1.66-0.35,2.49-0.44c1.65-0.18,2.93-0.02,3.86,0.46c0.92,0.49,1.49,1.65,1.69,3.49
			L358.53,380.97z"/>
	</g>
	<g>
		<path class="st2" d="M396.22,372.46c0.13,1.16,0.01,2.05-0.34,2.65c-0.35,0.61-0.95,1.22-1.79,1.84
			c-0.49,0.36-1.12,0.72-1.87,1.08c-0.76,0.37-1.59,0.7-2.51,1.01c-0.91,0.31-1.88,0.57-2.9,0.8c-1.02,0.22-2.03,0.39-3.05,0.5
			c-2.7,0.29-5.27,0.2-7.71-0.28c-2.44-0.48-4.61-1.36-6.51-2.65c-1.9-1.29-3.48-2.99-4.73-5.09c-1.25-2.1-2.03-4.61-2.35-7.54
			c-0.33-3.07-0.07-5.81,0.79-8.22c0.86-2.41,2.11-4.47,3.77-6.18s3.61-3.07,5.87-4.08c2.26-1,4.63-1.64,7.1-1.9
			c3.56-0.38,6.44-0.12,8.65,0.8c2.2,0.92,3.41,2.3,3.6,4.13c0.11,0.98-0.05,1.84-0.46,2.61c-0.41,0.77-0.91,1.39-1.5,1.87
			c-1-0.46-2.23-0.89-3.69-1.28c-1.46-0.39-3.08-0.49-4.84-0.3c-3.15,0.34-5.55,1.51-7.21,3.51c-1.66,2-2.32,4.59-1.97,7.78
			c0.19,1.72,0.6,3.19,1.24,4.39c0.64,1.2,1.44,2.16,2.39,2.87c0.95,0.71,2.01,1.2,3.17,1.48c1.17,0.27,2.39,0.34,3.66,0.2
			c0.83-0.09,1.55-0.24,2.17-0.46c0.62-0.22,1.09-0.44,1.41-0.66l-0.57-5.28l-6.02,0.65c-0.27-0.39-0.54-0.91-0.82-1.56
			c-0.28-0.65-0.46-1.35-0.54-2.1c-0.15-1.35,0.06-2.36,0.61-3.02c0.55-0.67,1.32-1.05,2.29-1.16l9.5-1.03
			c1.12-0.12,2.03,0.09,2.71,0.65c0.69,0.55,1.09,1.39,1.21,2.51L396.22,372.46z"/>
	</g>
	<g>
		<path class="st2" d="M422.74,361.51c-1.71-0.38-3.27-0.79-4.68-1.23c-1.41-0.44-2.65-1.01-3.71-1.73
			c-1.06-0.72-1.93-1.62-2.6-2.71c-0.67-1.08-1.09-2.45-1.27-4.1c-0.34-3.19,0.61-5.87,2.86-8.04c2.25-2.18,5.58-3.51,10.01-3.98
			c1.61-0.17,3.12-0.22,4.53-0.15c1.41,0.07,2.64,0.29,3.68,0.65c1.04,0.36,1.89,0.88,2.53,1.55c0.64,0.67,1.01,1.49,1.12,2.47
			c0.11,0.98-0.03,1.83-0.41,2.57c-0.37,0.74-0.85,1.39-1.44,1.95c-0.88-0.44-2.04-0.78-3.46-1.02c-1.43-0.24-2.97-0.28-4.62-0.1
			c-1.69,0.18-2.9,0.55-3.64,1.1c-0.74,0.55-1.06,1.19-0.99,1.9c0.06,0.56,0.35,0.99,0.88,1.3c0.52,0.3,1.29,0.55,2.3,0.75
			l3.08,0.63c3.64,0.74,6.51,1.88,8.59,3.42c2.08,1.54,3.28,3.81,3.61,6.81c0.34,3.19-0.63,5.9-2.93,8.14
			c-2.3,2.24-5.88,3.62-10.76,4.15c-1.72,0.19-3.34,0.22-4.85,0.1c-1.51-0.12-2.85-0.39-4.01-0.82c-1.16-0.42-2.1-1.01-2.8-1.74
			c-0.71-0.74-1.12-1.63-1.23-2.68c-0.12-1.09,0.1-2.05,0.65-2.89c0.55-0.84,1.18-1.5,1.89-2c1.14,0.71,2.5,1.29,4.08,1.72
			c1.58,0.44,3.27,0.56,5.07,0.36c1.84-0.2,3.1-0.62,3.79-1.26s0.99-1.34,0.91-2.09s-0.44-1.29-1.08-1.62
			c-0.64-0.33-1.53-0.62-2.65-0.88L422.74,361.51z"/>
	</g>
	<g>
		<path class="st2" d="M460.17,343.65c-2.89,0.31-5,1.43-6.35,3.36c-1.35,1.93-1.85,4.5-1.5,7.73c0.35,3.26,1.48,5.68,3.37,7.26
			c1.89,1.58,4.29,2.21,7.17,1.9c1.54-0.17,2.82-0.51,3.84-1.04c1.02-0.53,1.99-1.11,2.91-1.74c0.69,0.46,1.26,1.03,1.69,1.72
			c0.43,0.69,0.7,1.53,0.81,2.5c0.17,1.54-0.55,2.93-2.14,4.18c-1.59,1.25-4.13,2.07-7.61,2.44c-2.51,0.27-4.91,0.17-7.2-0.3
			s-4.34-1.36-6.15-2.66c-1.81-1.3-3.31-3.04-4.51-5.2s-1.97-4.82-2.31-7.97c-0.32-2.92-0.14-5.55,0.54-7.88
			c0.68-2.33,1.73-4.35,3.16-6.06c1.43-1.71,3.16-3.07,5.22-4.09c2.05-1.02,4.29-1.66,6.73-1.92c3.45-0.37,6.18-0.1,8.19,0.82
			c2.01,0.92,3.12,2.26,3.31,4.02c0.11,0.98-0.05,1.84-0.46,2.61c-0.41,0.77-0.91,1.39-1.5,1.87c-1.04-0.53-2.14-0.96-3.3-1.29
			C462.94,343.58,461.63,343.49,460.17,343.65z"/>
	</g>
	<g>
		<path class="st2" d="M473.74,352.42c-0.32-2.92-0.14-5.56,0.54-7.91c0.67-2.35,1.73-4.37,3.16-6.06c1.43-1.69,3.18-3.05,5.25-4.07
			c2.07-1.02,4.36-1.67,6.87-1.94c2.51-0.27,4.89-0.13,7.13,0.42c2.24,0.55,4.25,1.5,6.02,2.85c1.78,1.34,3.24,3.09,4.41,5.24
			c1.16,2.15,1.9,4.69,2.22,7.61c0.32,2.92,0.15,5.57-0.51,7.93c-0.65,2.37-1.7,4.39-3.12,6.08c-1.43,1.69-3.19,3.05-5.28,4.07
			c-2.09,1.02-4.41,1.67-6.96,1.95c-2.55,0.28-4.95,0.13-7.21-0.44c-2.26-0.57-4.26-1.54-6-2.91c-1.74-1.37-3.18-3.13-4.33-5.28
			C474.78,357.82,474.05,355.31,473.74,352.42z M483.86,351.32c0.37,3.41,1.34,5.88,2.91,7.42c1.57,1.54,3.51,2.18,5.84,1.93
			c2.36-0.26,4.15-1.3,5.35-3.14c1.21-1.84,1.62-4.46,1.26-7.87c-0.36-3.37-1.32-5.83-2.87-7.37c-1.55-1.54-3.51-2.18-5.87-1.93
			c-2.32,0.25-4.1,1.29-5.32,3.11C483.92,345.3,483.49,347.92,483.86,351.32z"/>
	</g>
	<g>
		<path class="st2" d="M525.39,352.98l1.17,10.79c-0.4,0.16-1.04,0.34-1.9,0.55c-0.87,0.21-1.73,0.36-2.6,0.45
			c-0.86,0.09-1.63,0.11-2.3,0.05c-0.67-0.06-1.24-0.24-1.71-0.53c-0.47-0.29-0.85-0.72-1.14-1.3c-0.29-0.58-0.49-1.35-0.59-2.33
			l-2.86-26.48c-0.09-0.79,0.06-1.42,0.45-1.9c0.38-0.48,0.93-0.89,1.66-1.23c1.23-0.59,2.67-1.08,4.33-1.46
			c1.66-0.39,3.45-0.69,5.36-0.89c5.17-0.56,9.19,0.11,12.05,2c2.86,1.89,4.49,4.69,4.89,8.4c0.25,2.32-0.13,4.38-1.15,6.15
			c-1.02,1.78-2.31,3.21-3.86,4.28c1.55,1.69,3.06,3.27,4.55,4.74c1.49,1.47,2.67,2.82,3.57,4.05c-0.23,1.35-0.81,2.43-1.73,3.23
			c-0.92,0.8-2,1.27-3.23,1.4c-0.83,0.09-1.55,0.07-2.17-0.05c-0.62-0.12-1.17-0.33-1.66-0.62c-0.48-0.29-0.94-0.66-1.37-1.1
			c-0.43-0.45-0.84-0.93-1.24-1.46l-5.54-7.08L525.39,352.98z M528.12,345.12c1.43-0.15,2.51-0.64,3.25-1.46
			c0.75-0.82,1.04-1.94,0.89-3.37s-0.73-2.45-1.73-3.08c-1-0.63-2.49-0.84-4.48-0.63c-0.56,0.06-1.01,0.13-1.34,0.2
			s-0.7,0.17-1.11,0.29l0.91,8.43L528.12,345.12z"/>
	</g>
	<g>
		<path class="st2" d="M547.92,332.51c-0.17-1.61,0.16-2.94,0.99-3.97c0.84-1.04,2.06-1.64,3.67-1.82l18.55-2.01
			c0.31,0.38,0.6,0.9,0.88,1.55c0.28,0.65,0.46,1.35,0.54,2.1c0.15,1.43-0.05,2.47-0.6,3.14c-0.55,0.67-1.33,1.05-2.35,1.16
			l-11.86,1.28l0.57,5.23l12.65-1.37c0.31,0.38,0.6,0.89,0.88,1.53c0.28,0.63,0.46,1.33,0.54,2.07c0.15,1.43-0.04,2.47-0.57,3.13
			c-0.53,0.66-1.31,1.05-2.32,1.16l-10.35,1.12l0.64,5.9l14.45-1.56c0.31,0.38,0.6,0.9,0.88,1.55c0.28,0.65,0.46,1.35,0.54,2.1
			c0.15,1.43-0.05,2.48-0.6,3.16c-0.55,0.69-1.33,1.08-2.35,1.19l-16.42,1.77c-1.61,0.17-2.94-0.16-3.98-0.99
			c-1.04-0.84-1.64-2.06-1.82-3.67L547.92,332.51z"/>
	</g>
</g>
<g>
	<polygon points="269.82,357.94 223.89,361.59 247.07,374.19 227.96,393.89 273.29,389.78 	"/>
</g>
</svg>
