<svg id="Calque_1" data-name="Calque 1" xmlns="http://www.w3.org/2000/svg" viewBox="0 0 1500 1500"><defs><style>.cls-1{fill:#131b31;}.cls-2{fill:#fff;}.cls-3{fill:#03bfda;}.cls-4{fill:#020202;}</style></defs><title>logo</title><circle class="cls-1" cx="750" cy="750" r="750"/><path class="cls-2" d="M166,622.2q0-33.18,10.42-58.71t28.51-42.75a121.06,121.06,0,0,1,42.54-26.17,161.54,161.54,0,0,1,105.93,0,123.36,123.36,0,0,1,42.76,26.17q18.29,17.22,28.71,42.75t10.42,58.71q0,33.18-10.21,58.92t-28.29,43A120.62,120.62,0,0,1,354,750.25q-24.68,8.94-53.61,8.94T246.83,750a119.53,119.53,0,0,1-42.54-26.59q-17.86-17.44-28.08-43T166,622.2Zm76.58,0q0,38.71,15.74,57.86t42.11,19.14q26.81,0,42.55-19.14t15.74-57.86q0-38.3-15.53-57.43t-42.33-19.15q-26.39,0-42.33,18.93T242.58,622.2Z"/><path class="cls-2" d="M706.28,656.23q0,23-7.86,41.91a88.82,88.82,0,0,1-22.77,32.33q-14.89,13.39-36.16,20.63t-48.07,7.24q-26.8,0-48.07-7.24t-36.16-20.63a88.56,88.56,0,0,1-22.76-32.33q-7.89-18.93-7.88-41.91V493.72q4.68-.84,14.9-2.34A135.89,135.89,0,0,1,511,489.89a88.74,88.74,0,0,1,17.23,1.49,30.84,30.84,0,0,1,12.56,5.32,23,23,0,0,1,7.65,10.63Q551,514.14,551,525.2V655q0,20.41,11.27,31.9t29.14,11.49q18.29,0,29.36-11.49T631.84,655V493.72q4.67-.84,14.89-2.34a135.92,135.92,0,0,1,19.57-1.49,88.88,88.88,0,0,1,17.23,1.49,30.76,30.76,0,0,1,12.54,5.32,22.94,22.94,0,0,1,7.66,10.63q2.57,6.81,2.55,17.87Z"/><path class="cls-2" d="M834.76,749.83a118.86,118.86,0,0,1-14.68,2.55,156.33,156.33,0,0,1-19.78,1.28,88.74,88.74,0,0,1-17.23-1.49,30.55,30.55,0,0,1-12.55-5.32,23,23,0,0,1-7.66-10.64q-2.55-6.8-2.55-17.86V493.72q4.68-.84,14.89-2.34a136.13,136.13,0,0,1,19.57-1.49A88.88,88.88,0,0,1,812,491.38a30.8,30.8,0,0,1,12.55,5.32,23.08,23.08,0,0,1,7.66,10.63q2.55,6.81,2.55,17.87Z"/><path class="cls-3" d="M345,1007.76a91.76,91.76,0,0,1-11.39,2,121.16,121.16,0,0,1-15.35,1,68.79,68.79,0,0,1-13.38-1.16,23.63,23.63,0,0,1-9.74-4.12,17.91,17.91,0,0,1-5.94-8.26q-2-5.28-2-13.87V931.81h-63.4v76a92.36,92.36,0,0,1-11.4,2,121.16,121.16,0,0,1-15.35,1,68.68,68.68,0,0,1-13.37-1.16,23.57,23.57,0,0,1-9.74-4.12,17.85,17.85,0,0,1-6-8.26q-2-5.28-2-13.87V809q3.63-.66,11.56-1.82A106.71,106.71,0,0,1,192.75,806a69.6,69.6,0,0,1,13.37,1.15,23.9,23.9,0,0,1,9.74,4.13,17.94,17.94,0,0,1,5.95,8.26q2,5.28,2,13.87v52.83h63.4V809q3.63-.66,11.55-1.82A106.93,106.93,0,0,1,313.93,806a69.71,69.71,0,0,1,13.38,1.15,23.9,23.9,0,0,1,9.74,4.13,17.86,17.86,0,0,1,5.94,8.26q2,5.28,2,13.87Z"/><path class="cls-3" d="M387.9,839.68q0-14.19,8.25-22.45T418.61,809h109a40,40,0,0,1,4.13,9.58,43,43,0,0,1,1.81,12.54q0,12.55-5.45,17.84t-14.36,5.28H444v30.71h74.29a40,40,0,0,1,4.13,9.41,41.09,41.09,0,0,1,1.82,12.38q0,12.56-5.29,17.83t-14.2,5.29H444V964.5H528.9a39.8,39.8,0,0,1,4.13,9.58,43,43,0,0,1,1.81,12.54q0,12.55-5.45,18T515,1010.07H418.61q-14.21,0-22.46-8.26t-8.25-22.45Z"/><path class="cls-3" d="M646.45,1014.36q-5.61,0-13.21-.33t-15.68-1.32q-8.1-1-16-2.48a77.62,77.62,0,0,1-14.53-4.12q-18.16-6.95-18.16-24.11V827.79q0-6.93,3.8-10.73a27.07,27.07,0,0,1,10.4-6.11q11.22-4,28.07-5.78a326.08,326.08,0,0,1,34.67-1.81q42.27,0,65.05,14.2t22.79,43.91q0,14.87-8.59,25.6t-23.11,15.68a57.3,57.3,0,0,1,27.57,16.84q11.06,12.23,11.06,30.71,0,32.69-24.27,48.38T646.45,1014.36ZM625,887.23h24.1q14.2,0,20.64-5.28t6.44-15.52a16.56,16.56,0,0,0-7.43-14.2Q661.32,847,646.45,847q-5,0-11.39.32a85.15,85.15,0,0,0-10.07,1Zm0,80.57a59,59,0,0,0,11.88,1.82q7.26.5,13.87.49,13.21,0,22-5.45t8.75-17q0-10.9-7.26-15.52t-22.13-4.62H625Z"/><path class="cls-3" d="M773.25,839.68q0-14.19,8.25-22.45T804,809h109a40,40,0,0,1,4.12,9.58,42.68,42.68,0,0,1,1.82,12.54q0,12.55-5.45,17.84t-14.36,5.28H829.38v30.71h74.3a40,40,0,0,1,4.13,9.41,41.09,41.09,0,0,1,1.82,12.38q0,12.56-5.29,17.83t-14.2,5.29H829.38V964.5h84.87a39.8,39.8,0,0,1,4.13,9.58,43,43,0,0,1,1.81,12.54q0,12.55-5.45,18t-14.36,5.45H804q-14.21,0-22.46-8.26t-8.25-22.45Z"/><path class="cls-3" d="M1011.66,944.36v63.4a92.36,92.36,0,0,1-11.4,2,121.16,121.16,0,0,1-15.35,1,68.61,68.61,0,0,1-13.37-1.16,22.27,22.27,0,0,1-9.58-4.12,18.45,18.45,0,0,1-5.78-8.26q-2-5.28-2-13.87V827.79q0-6.93,3.8-10.73A27.07,27.07,0,0,1,968.4,811a124.48,124.48,0,0,1,26.08-5.78,264.11,264.11,0,0,1,31.71-1.81q45.55,0,68.68,19.15T1118,874.35q0,20.48-10.56,35a75.84,75.84,0,0,1-25.1,22.46q11.9,16.19,23.45,30.38A196.77,196.77,0,0,1,1123.93,988q-3.32,11.55-12.06,17.66a33.52,33.52,0,0,1-19.64,6.11,42.29,42.29,0,0,1-12.55-1.65,30.5,30.5,0,0,1-9.25-4.62,38.15,38.15,0,0,1-7.26-7.27,96.92,96.92,0,0,1-6.27-9.24l-27.74-44.58Zm20.8-43.92q12.54,0,19.81-6.44t7.27-19q0-12.54-8.09-19t-25.59-6.44a75.19,75.19,0,0,0-7.93.33q-3,.33-6.6,1v49.53Z"/><path class="cls-3" d="M1333.94,976.39q0,10.23-3.63,15.19t-11.56,9.57a72.32,72.32,0,0,1-11.56,5.12,125.31,125.31,0,0,1-15.19,4.29,162.9,162.9,0,0,1-17.33,2.81,166,166,0,0,1-18,1,149.77,149.77,0,0,1-44.58-6.44,101.36,101.36,0,0,1-36.16-19.48,92.5,92.5,0,0,1-24.27-32.53q-8.91-19.47-8.91-45.24,0-27.06,9.74-47.22a99.2,99.2,0,0,1,25.76-33.51,107.8,107.8,0,0,1,36.65-20,138.41,138.41,0,0,1,42.43-6.6q31.37,0,49.7,10.07t18.32,26.25a25.66,25.66,0,0,1-4.29,14.86,35.35,35.35,0,0,1-9.9,9.91,136.16,136.16,0,0,0-20.64-9.75,77.16,77.16,0,0,0-27.9-4.78q-27.75,0-44.09,15.85t-16.34,43.91q0,15.2,4.45,26.26a50,50,0,0,0,12.06,18.16,49,49,0,0,0,17.5,10.56,63.28,63.28,0,0,0,21.13,3.47,56.64,56.64,0,0,0,12.88-1.32,34.86,34.86,0,0,0,8.59-3v-31h-35.34a51.49,51.49,0,0,1-3.79-9.58,42.37,42.37,0,0,1-1.82-12.55q0-11.88,5.45-17.17t14-5.28h55.81q9.9,0,15.35,5.45t5.45,15.35Z"/><path class="cls-3" d="M1039.22,542.78s-39.72-82-156.87-49.52c0,0,58.89,17.35,74.14,73Z"/><path class="cls-3" d="M1039.22,696.51s-39.72,82-156.87,49.53c0,0,58.89-17.36,74.14-73Z"/><path class="cls-4" d="M932.06,646.27V590.51a4.71,4.71,0,0,1,3.67-4.59l13.5-3.06a4.71,4.71,0,0,1,5.75,4.59v61.88a4.71,4.71,0,0,1-5.75,4.59l-13.5-3.06A4.71,4.71,0,0,1,932.06,646.27Z"/><path class="cls-2" d="M1070.86,537.93s-78.56,8.56-128.35,35c0,0,20.23,42,0,91.8,0,0,42,30.34,134.58,36.56,53.34,3.58,114.24-.7,166.71-18.36V559.54C1201.05,543.12,1143.65,531.42,1070.86,537.93Z"/><path class="cls-3" d="M1328.93,609.73c-14-12.41-42.18-33.69-85.13-50.19V682.93c33.57-11.31,63.71-28.08,86.17-51.83A14.89,14.89,0,0,0,1328.93,609.73Z"/><path class="cls-3" d="M1074.66,617.45s-86-37.84-188.24,0C886.42,617.45,971.74,659.51,1074.66,617.45Z"/><circle class="cls-3" cx="1152.56" cy="618.39" r="43.93"/><circle class="cls-1" cx="1152.56" cy="618.39" r="30.5" transform="translate(286.99 1599) rotate(-76.78)"/></svg>